<?xml version="1.0" encoding="UTF-8"?>
<svg width="66px" height="66px" viewBox="0 0 66 66" version="1.1" xmlns="http://www.w3.org/2000/svg" xmlns:xlink="http://www.w3.org/1999/xlink">
    <title>Add Button</title>
    <defs>
        <filter x="-47.9%" y="-47.9%" width="195.8%" height="195.8%" filterUnits="objectBoundingBox" id="filter-1">
            <feOffset dx="0" dy="3" in="SourceAlpha" result="shadowOffsetOuter1"></feOffset>
            <feGaussianBlur stdDeviation="4.5" in="shadowOffsetOuter1" result="shadowBlurOuter1"></feGaussianBlur>
            <feColorMatrix values="0 0 0 0 0.17254902   0 0 0 0 0.247058824   0 0 0 0 0.345098039  0 0 0 0.298295455 0" type="matrix" in="shadowBlurOuter1" result="shadowMatrixOuter1"></feColorMatrix>
            <feMerge>
                <feMergeNode in="shadowMatrixOuter1"></feMergeNode>
                <feMergeNode in="SourceGraphic"></feMergeNode>
            </feMerge>
        </filter>
    </defs>
    <g id="Layout-Capstone-Project-Input-Page-Copy" stroke="none" stroke-width="1" fill="none" fill-rule="evenodd">
        <g id="Input-Page-1-New-0707.2020" transform="translate(-173.000000, -607.000000)">
            <g id="Group-Copy" transform="translate(182.000000, 613.000000)" filter="url(#filter-1)">
                <circle id="Oval" stroke="#2C3F58" stroke-width="4" fill="#EDECE4" cx="24" cy="24" r="22"></circle>
                <path d="M24.0384615,15.1585695 C24.9894944,15.1585695 25.7604588,15.9679009 25.7604588,16.9662618 L25.7604588,16.9662618 L25.76,22.475 L31.2692308,22.4750337 C32.2176736,22.4750337 32.9955174,23.1708292 33.0709306,24.0558005 L33.0769231,24.197031 C33.0769231,25.1480639 32.2675917,25.9190283 31.2692308,25.9190283 L31.2692308,25.9190283 L25.76,25.919 L25.7604588,31.4278003 C25.7604588,32.3762431 25.0646634,33.1540869 24.1796921,33.2295001 L24.0384615,33.2354926 C23.0874287,33.2354926 22.3164642,32.4261612 22.3164642,31.4278003 L22.3164642,31.4278003 L22.316,25.919 L16.8076923,25.9190283 C15.8592495,25.9190283 15.0814057,25.2232329 15.0059924,24.3382616 L15,24.197031 C15,23.2459982 15.8093314,22.4750337 16.8076923,22.4750337 L16.8076923,22.4750337 L22.316,22.475 L22.3164642,16.9662618 C22.3164642,16.017819 23.0122597,15.2399752 23.897231,15.1645619 Z" id="Combined-Shape" fill="#2C3F58" fill-rule="nonzero"></path>
            </g>
        </g>
    </g>
</svg>