<?xml version="1.0" encoding="UTF-8"?>
<svg width="119px" height="119px" viewBox="0 0 119 119" version="1.1" xmlns="http://www.w3.org/2000/svg" xmlns:xlink="http://www.w3.org/1999/xlink">
    <title>Group 2</title>
    <defs>
        <filter x="-48.6%" y="-48.6%" width="197.1%" height="197.1%" filterUnits="objectBoundingBox" id="filter-1">
            <feOffset dx="1" dy="2" in="SourceAlpha" result="shadowOffsetOuter1"></feOffset>
            <feGaussianBlur stdDeviation="7.5" in="shadowOffsetOuter1" result="shadowBlurOuter1"></feGaussianBlur>
            <feColorMatrix values="0 0 0 0 0   0 0 0 0 0   0 0 0 0 0  0 0 0 0.5 0" type="matrix" in="shadowBlurOuter1" result="shadowMatrixOuter1"></feColorMatrix>
            <feMerge>
                <feMergeNode in="shadowMatrixOuter1"></feMergeNode>
                <feMergeNode in="SourceGraphic"></feMergeNode>
            </feMerge>
        </filter>
        <filter id="filter-2">
            <feColorMatrix in="SourceGraphic" type="matrix" values="0 0 0 0 0.847000 0 0 0 0 0.847000 0 0 0 0 0.847000 0 0 0 0.000000 0"></feColorMatrix>
        </filter>
    </defs>
    <g id="Layout-Capstone-Project-Input-Page-Copy" stroke="none" stroke-width="1" fill="none" fill-rule="evenodd">
        <g id="Group-2" filter="url(#filter-1)" transform="translate(25.000000, 25.000000)">
            <g id="icon-">
                <g id="Container" filter="url(#filter-2)">
                    <g>
                        <rect id="view-box" fill="#F7F9FC" x="0" y="0" width="69" height="69"></rect>
                    </g>
                </g>
                <path d="M34.0818182,3.4789916 C51.0570431,3.4789916 64.8181818,17.1079705 64.8181818,33.9201681 C64.8181818,50.7323656 51.0570431,64.3613445 34.0818182,64.3613445 C17.1065933,64.3613445 3.34545455,50.7323656 3.34545455,33.9201681 C3.34545455,17.1079705 17.1065933,3.4789916 34.0818182,3.4789916 Z M34.0818182,8.16224952 C19.7181663,8.16224952 8.07412587,19.6944625 8.07412587,33.9201681 C8.07412587,48.1458737 19.7181663,59.6780866 34.0818182,59.6780866 C48.44547,59.6780866 60.0895105,48.1458737 60.0895105,33.9201681 C60.0895105,19.6944625 48.44547,8.16224952 34.0818182,8.16224952 Z M32.9629908,22.8688467 C33.8063413,23.6959007 33.8891091,24.996146 33.2070442,25.9160092 L32.9791406,26.1800381 L23.6082105,35.5491822 L32.9438779,44.689224 C33.7880138,45.5156712 33.8718832,46.8159876 33.1905184,47.7365115 L32.9629908,48.0005777 C32.0449099,48.9202105 30.5479194,48.9286162 29.619369,48.0193524 L18.3788698,37.012326 C17.6536435,36.3040588 17.5751628,35.1924373 18.1467625,34.3961717 L18.3635161,34.1434043 L18.3635161,34.1434043 L29.6193559,22.8851764 C30.5381222,21.9662152 32.0351185,21.9589042 32.9629908,22.8688467 Z" id="Shape" fill="#2C3F58" fill-rule="nonzero" style="mix-blend-mode: darken;"></path>
            </g>
            <line x1="21.65" y1="35.5" x2="51.65" y2="35.5" id="Line-3" stroke="#2C3F58" stroke-width="6" fill="#2C3F58" stroke-linecap="round"></line>
        </g>
    </g>
</svg>