<?xml version="1.0" encoding="UTF-8"?>
<svg width="53px" height="46px" viewBox="0 0 53 46" version="1.1" xmlns="http://www.w3.org/2000/svg" xmlns:xlink="http://www.w3.org/1999/xlink">
    <title>Logo</title>
    <g id="Layout-Capstone-Project-Input-Page-Copy" stroke="none" stroke-width="1" fill="none" fill-rule="evenodd">
        <g id="Input-Page-2-New-07.07.2020" transform="translate(-247.000000, -70.000000)" fill="#000000">
            <g id="TasTEA" transform="translate(131.000000, 61.000000)">
                <g id="tea-1" transform="translate(116.000000, 9.000000)">
                    <path d="M10.3125912,17.711691 C10.5021877,17.903569 10.7510938,18 11,18 C11.2489062,18 11.4978123,17.903569 11.6874088,17.711691 C12.0675741,17.3269511 12.0675741,16.7050696 11.6874088,16.3203296 C11.2090423,15.8362067 10.9445795,15.1926775 10.9445795,14.5088047 C10.9445795,13.8249318 11.20807,13.1804186 11.6874088,12.6962957 C12.5333009,11.8402247 13,10.7027326 13,9.49242533 C13,8.28211804 12.5342732,7.14462598 11.6874088,6.28855497 C11.3072436,5.90381501 10.6917842,5.90381501 10.3125912,6.28855497 C9.93242586,6.67329493 9.93242586,7.2951764 10.3125912,7.67991636 C10.7909577,8.16502327 11.0544482,8.8095365 11.0544482,9.49340932 C11.0544482,10.1772821 10.7909577,10.8217954 10.3116189,11.3059183 C9.46572679,12.1619893 9,13.2994814 9,14.5088047 C9,15.718128 9.46572679,16.85562 10.3125912,17.711691 Z M32.3125912,17.711691 C32.5021877,17.903569 32.7510938,18 33,18 C33.2489062,18 33.4978123,17.903569 33.6874088,17.711691 C34.0675741,17.3269511 34.0675741,16.7050696 33.6874088,16.3203296 C33.2090423,15.8362067 32.9445795,15.1926775 32.9445795,14.5088047 C32.9445795,13.8249318 33.20807,13.1804186 33.6874088,12.6962957 C34.5333009,11.8402247 35,10.7027326 35,9.49242533 C35,8.28211804 34.5342732,7.14462598 33.6874088,6.28855497 C33.3072436,5.90381501 32.6917842,5.90381501 32.3125912,6.28855497 C31.9324259,6.67329493 31.9324259,7.2951764 32.3125912,7.67991636 C32.7909577,8.16502327 33.0544482,8.8095365 33.0544482,9.49340932 C33.0544482,10.1772821 32.7909577,10.8217954 32.3116189,11.3059183 C31.4657268,12.1619893 31,13.2994814 31,14.5088047 C31,15.718128 31.4657268,16.85562 32.3125912,17.711691 Z M20.7698658,14.7204599 C20.9711042,14.9065019 21.2352941,15 21.499484,15 C21.7636739,15 22.0278638,14.9065019 22.2301342,14.7204599 C22.6326109,14.3474216 22.6326109,13.7444545 22.2301342,13.3714163 C21.4778122,12.6759052 21.0650155,11.7542814 21.0650155,10.7735057 C21.0650155,9.79273005 21.4788442,8.87015217 22.2301342,8.17464103 C23.371517,7.12040261 24,5.71888566 24,4.22768688 C24,2.7364881 23.371517,1.3359252 22.2301342,0.279778658 C21.8266254,-0.0932595525 21.1744066,-0.0932595525 20.7708978,0.279778658 C20.3673891,0.652816868 20.3673891,1.255784 20.7708978,1.62882221 C21.5221878,2.32433335 21.9360165,3.24595716 21.9360165,4.22768688 C21.9360165,5.20750847 21.5221878,6.13008634 20.7708978,6.82559748 C19.628483,7.88078996 19,9.28230692 19,10.7735057 C19,12.2647045 19.628483,13.6652674 20.7698658,14.7204599 Z M50,24.826087 C50,24.2971304 49.5851852,23.8695652 49.0740741,23.8695652 L40.7,23.8695652 C40.7259259,23.2411304 40.7407407,22.604087 40.7407407,21.9565217 C40.7407407,21.4275652 40.3259259,21 39.8148148,21 C39.8148148,21 30.8861853,21.9565217 27.8850144,21.9565217 L10.6271189,21.9565217 L0.925925926,21 C0.414814815,21 0,21.4275652 0,21.9565217 C0,31.2405217 2.725,38.5818261 7.73240741,43 C7.73240741,43 20.2864173,43 27.0410725,43 L27.8850144,43 L32.8270755,43 C34.8446681,41.219913 36.6666667,38.9586957 37.9138889,36.2938261 C37.9314815,36.2947826 50,31.3696522 50,24.826087 Z M32.8181438,43 C32.8181438,43 31.0530575,44.061561 30.0891006,44.3429535 C28.939942,44.6784091 28.7925178,44.9794909 27.3495794,45.1916217 C26.1518283,45.3677069 23.5315923,45.4852508 23.5315923,45.4852508 C18.0005895,45.3802047 13.7108554,45.462428 11.3489991,44.9883094 C10.6745523,44.852921 9.61256993,44.4343888 9.22092664,44.1454932 C8.3131483,43.4758705 7.72564897,43 7.72564897,43 L32.8181438,43 Z M53,22 C52.2931239,30.404884 46.2631891,36.4480375 38,37 C39.5174867,32.5291035 40.5103734,27.5012266 40.9519858,22 L53,22 Z M3,24 L13.1962579,24 L17.5182304,24 L37,24 C36.8401592,31.3886671 33.6541316,37.2477837 30.0314623,40.9231026 C29.7414334,41.2173467 29.6651457,41.3244638 29.6651457,41.3244638 L29.2945915,41.6766231 L29.060969,42.0037692 C29.060969,42.0037692 28.8556428,42.2088102 28.7373673,42.2842846 C28.6190918,42.3597591 28.2493928,42.8555172 27.9109518,42.8964099 C27.1344505,42.9902319 27.1529314,43.0283693 27.0891379,42.9997102 C27.0410681,42.9781149 26.7077798,42.9816202 25.8266581,42.9816202 C25.7089001,42.9816202 25.4723947,42.9830716 25.1563536,42.985204 C24.5413645,42.9893534 23.6252065,42.9960813 22.6968047,42.9997102 C21.9945093,43.0024553 20.5912426,42.9848793 20,42.9816202 C19.504621,42.9788895 19.7860858,42.9917365 19.5300259,42.9816202 C14.9628371,42.8011809 11.4840734,42.8964099 11.4840734,42.8964099 C6.32513598,39.604368 3.1845515,32.5309248 3,24 Z"></path>
                </g>
            </g>
        </g>
    </g>
</svg>